<?xml version="1.0" encoding="utf-8"?>
<!DOCTYPE svg PUBLIC "-//W3C//DTD SVG 1.0//EN" "http://www.w3.org/TR/2001/REC-SVG-20010904/DTD/svg10.dtd">
<svg version="1.0" xmlns="http://www.w3.org/2000/svg" width="1563px" height="1563px" viewBox="0 0 1563 1563" preserveAspectRatio="xMidYMid meet">
 <g fill="#000000">
  <path d="M1216.5 942.4 c-22.1 -3.5 -34.9 -6.5 -46 -11 -6.9 -2.8 -22.8 -10.9 -27.4 -14 -2.4 -1.6 -5.1 -3.3 -6 -3.9 -7.2 -4.5 -20.4 -16.9 -29.7 -27.7 -18.5 -21.7 -31.8 -54.9 -34.5 -86.3 -6 -68.2 24.6 -127.6 81.2 -157.8 6.2 -3.3 13.6 -6.4 25.4 -10.7 7.7 -2.7 23 -6 33.5 -7 26.4 -2.7 52.2 -0.1 76 7.7 8.5 2.8 27.6 11.8 33.3 15.7 2.1 1.4 4.2 2.6 4.7 2.6 0.4 0 1 0.3 1.2 0.8 0.2 0.4 3 2.7 6.3 5.2 8.1 6.1 21.1 19.1 27.3 27.2 2.9 3.7 5.2 6.9 5.2 7.2 0 0.2 1.6 2.8 3.6 5.7 2 3 5.2 8.8 7.1 12.9 1.9 4.1 3.8 8.2 4.3 9.1 1.2 2.3 6.5 19.2 8.5 26.7 4.5 18.1 4.6 55.2 0.1 74.7 -8.6 37.3 -27.1 66.9 -55.8 89.4 -10.9 8.6 -15.3 11.4 -25.3 16.4 -23 11.5 -45.2 16.7 -73 17.2 -9.3 0.2 -18.3 0.1 -20 -0.1z m32.5 -54.9 c32.2 -4.4 58.6 -23.3 74.6 -53.3 10.7 -20.1 14.7 -51.4 9.5 -75.2 -5.9 -26.8 -20.4 -50.1 -39.1 -62.8 -3 -2 -5.7 -4 -6 -4.4 -1.8 -2.3 -21.2 -10 -31.1 -12.4 -10.5 -2.4 -12.7 -2.5 -26.9 -2.1 -22.8 0.8 -37.7 5.4 -55.3 17.1 -9.5 6.4 -26.7 24.6 -26.7 28.4 0 0.5 -0.4 1.2 -0.9 1.4 -1.2 0.4 -7.4 13.1 -9.8 20.3 -4.6 13.3 -5.8 21.2 -5.8 38.5 0.1 22.2 2.9 34.4 12.2 52.5 5 9.9 8.7 14.9 17.8 24.1 22.5 22.8 53.2 32.6 87.5 27.9z"/>
  <path d="M514 782.7 l0 -153.8 66.8 0.4 c63.7 0.3 67.1 0.4 76.2 2.5 25.8 5.8 42.4 15.6 57.8 34.1 2.9 3.4 5.2 6.6 5.2 7.1 0 0.5 0.6 1.5 1.3 2.2 1.7 1.9 6.1 11.2 8.6 18.3 7.5 21.5 7.6 49.7 0.4 68 -9.3 23.6 -22.8 39.3 -42.7 49.7 -2.8 1.4 -6.3 2.9 -7.8 3.3 -1.6 0.4 -2.8 1 -2.8 1.5 0 0.4 8.1 15.1 18.1 32.6 10 17.6 19.1 33.7 20.3 35.9 3 5.4 10.6 18.9 13.2 23.3 2.5 4.3 4.6 8 9.9 17.7 2.1 3.9 4.5 7.8 5.3 8.8 1.5 1.6 0 1.7 -30.8 1.5 l-32.3 -0.3 -1.9 -3 c-1 -1.6 -2.7 -4.8 -3.9 -7 -1.1 -2.2 -2.9 -5.6 -4.1 -7.5 -1.1 -1.9 -3.2 -5.5 -4.5 -8 -1.3 -2.5 -2.8 -5.2 -3.3 -6 -0.5 -0.8 -4.1 -7.3 -8 -14.5 -3.9 -7.1 -7.5 -13.7 -8.1 -14.5 -0.5 -0.8 -1.7 -3.1 -2.5 -5 -0.9 -1.9 -2 -3.7 -2.4 -4 -0.4 -0.3 -1.5 -2.1 -2.4 -4 -0.9 -1.9 -2.6 -5.3 -3.9 -7.5 -1.3 -2.2 -4.1 -7.1 -6.2 -11 -5.5 -10.2 -16.4 -29.8 -17.5 -31.5 -0.5 -0.8 -1.8 -3.1 -2.8 -5 -1 -1.9 -2.8 -5.1 -3.9 -7 -4.3 -7.6 -11.3 -20.7 -11.3 -21.3 0 -0.3 10 -0.7 22.3 -1 15.6 -0.3 23.7 -0.9 27.3 -2 21.5 -6.4 34.4 -23.1 34.4 -44.7 0 -13.2 -4.9 -25.1 -14 -34 -12.2 -12.1 -20.6 -14 -62.1 -14 l-29.9 0 0 126.5 0 126.4 -29 0.3 -29 0.3 0 -153.8z"/>
  <path d="M780 782.8 l0 -153.8 59.3 0 c48.2 0 61.2 0.3 69.7 1.6 27 4 35.4 6.4 55.8 16.1 32.3 15.4 58.1 43.5 70.6 76.7 17.3 45.8 12.8 103 -11.2 142.6 -2.5 4.1 -4.9 8 -5.4 8.5 -18 22.9 -30.7 33.7 -52.3 44.5 -12.8 6.3 -19.3 8.7 -34.5 12.5 -10.3 2.5 -31.8 5.2 -34.4 4.2 -0.8 -0.3 -2.7 -2.8 -4.1 -5.4 -1.4 -2.6 -3.6 -6.5 -4.8 -8.5 -1.2 -2.1 -3.5 -6.1 -5.1 -9 -1.5 -2.9 -3.8 -6.9 -5 -8.8 -2.9 -4.8 -5.2 -8.9 -6.9 -12.6 -0.8 -1.7 -2 -3.5 -2.6 -3.8 -0.6 -0.4 -1.1 -1.6 -1.1 -2.7 0 -1.7 0.8 -1.9 8.8 -1.9 17.6 -0.1 39 -3.4 49 -7.7 7.5 -3.1 14.8 -6.8 17.7 -8.8 20.5 -13.9 31.8 -29.4 39.5 -53.9 4.4 -14.4 4.8 -40.4 0.8 -55.6 -1 -4.1 -2.3 -8.9 -2.7 -10.6 -1.1 -4.3 -8.8 -19.5 -11.2 -22 -1 -1.1 -1.9 -2.3 -1.9 -2.7 0 -1.3 -12.5 -14 -18.1 -18.2 -3 -2.4 -9.3 -6.2 -13.9 -8.6 -18.8 -9.5 -33.6 -11.9 -72.2 -11.9 l-25.8 0 0 126.5 0 126.4 -29 0.3 -29 0.3 0 -153.7z"/>
  <path d="M167 934.9 c0 -0.7 2.4 -6.2 5.4 -12.3 3 -6.1 7 -14.6 9 -18.8 1.9 -4.2 6.4 -13.7 10 -21 3.5 -7.3 7.8 -16.4 9.6 -20.3 1.8 -3.8 5.4 -11.5 8 -17 7.3 -15.2 18.1 -38 29 -61 2.1 -4.4 6.6 -13.8 10 -21 3.4 -7.1 7.8 -16.4 9.7 -20.5 5.1 -10.8 11.6 -24.6 18.8 -39.5 3.4 -7.1 7.9 -16.6 10 -21 2.1 -4.4 6.1 -12.9 9 -19 2.8 -6 6.7 -14.1 8.5 -18 1.8 -3.8 4.7 -9.8 6.4 -13.2 l3.1 -6.3 8.8 0 8.8 0 5 10.7 c5.1 10.7 16.4 34.5 23.8 49.8 2.1 4.4 6.2 13 9.1 19 13.3 28 16.6 34.7 21.5 45 11.2 23.4 15.5 32.4 20.5 43 2.9 6.1 7.6 16 10.5 22 2.9 6.1 7.3 15.3 9.8 20.5 5.2 11 14.1 29.8 23.4 49 9.9 20.6 15.6 32.7 20 42 l4 8.5 -30.6 0.3 c-16.8 0.1 -31.1 0 -31.7 -0.2 -0.5 -0.2 -2.9 -4.8 -5.3 -10.2 -2.3 -5.5 -4.6 -10.6 -5 -11.4 -0.5 -0.9 -11.5 -25.4 -24.6 -54.5 -13.1 -29.2 -26.1 -57.9 -29 -64 -2.8 -6 -10.7 -23.5 -17.6 -38.7 -6.8 -15.3 -12.6 -27.8 -12.9 -27.8 -0.3 0 -2 3.3 -3.9 7.3 -3.2 6.9 -4.7 10.1 -9.2 20.4 -1.1 2.7 -2.4 5.5 -2.9 6.5 -0.5 0.9 -4.8 10.3 -9.5 21 -4.8 10.6 -9.7 21.6 -11 24.3 -1.3 2.8 -8.3 18.3 -15.5 34.5 -7.3 16.2 -14.5 32.2 -16 35.5 -1.6 3.3 -4.9 10.4 -7.4 15.7 -2.5 5.4 -4.6 10 -4.6 10.3 0 0.3 -1.4 3.6 -3.2 7.3 -1.7 3.7 -4.8 10.5 -6.9 15.2 l-3.8 8.5 -30.5 0.3 c-22.6 0.2 -30.6 -0.1 -30.6 -0.9z"/>
 </g>
</svg>